<svg xmlns="http://www.w3.org/2000/svg" width="48" height="48" viewBox="0 0 48 48">
  <defs>
    <linearGradient id="grad" x1="0%" y1="0%" x2="100%" y2="100%">
      <stop offset="0%" style="stop-color:#00d4ff"/>
      <stop offset="100%" style="stop-color:#0099cc"/>
    </linearGradient>
  </defs>
  <rect width="48" height="48" rx="10" fill="url(#grad)"/>
  <path d="M6 36v-12a18 18 0 0 1 36 0v12" stroke="white" stroke-width="3" fill="none"/>
  <path d="M42 38a4 4 0 0 1-4 4h-2a4 4 0 0 1-4-4v-6a4 4 0 0 1 4-4h6z" fill="white"/>
  <path d="M6 38a4 4 0 0 0 4 4h2a4 4 0 0 0 4-4v-6a4 4 0 0 0-4-4h-6z" fill="white"/>
</svg>
