<svg xmlns="http://www.w3.org/2000/svg" width="128" height="128" viewBox="0 0 128 128">
  <defs>
    <linearGradient id="grad" x1="0%" y1="0%" x2="100%" y2="100%">
      <stop offset="0%" style="stop-color:#00d4ff"/>
      <stop offset="100%" style="stop-color:#0099cc"/>
    </linearGradient>
    <filter id="shadow" x="-20%" y="-20%" width="140%" height="140%">
      <feDropShadow dx="0" dy="4" stdDeviation="8" flood-color="#00d4ff" flood-opacity="0.3"/>
    </filter>
  </defs>
  <rect width="128" height="128" rx="24" fill="url(#grad)" filter="url(#shadow)"/>
  <path d="M16 96v-32a48 48 0 0 1 96 0v32" stroke="white" stroke-width="6" fill="none" stroke-linecap="round"/>
  <path d="M112 100a10 10 0 0 1-10 10h-6a10 10 0 0 1-10-10v-16a10 10 0 0 1 10-10h16z" fill="white"/>
  <path d="M16 100a10 10 0 0 0 10 10h6a10 10 0 0 0 10-10v-16a10 10 0 0 0-10-10h-16z" fill="white"/>
</svg>
